<svg xmlns="http://www.w3.org/2000/svg" xmlns:xlink="http://www.w3.org/1999/xlink" width="400" zoomAndPan="magnify" viewBox="0 0 300 149.999998" height="200" preserveAspectRatio="xMidYMid meet" version="1.0"><defs><g/></defs><g fill="#439594" fill-opacity="1"><g transform="translate(36.245694, 102.351633)"><g><path d="M 33.6875 -59 C 33.488281 -57.289062 32.953125 -55.148438 32.078125 -52.578125 C 31.703125 -51.554688 31.132812 -50.660156 30.375 -49.890625 C 29.09375 -48.617188 27.875 -47.34375 26.71875 -46.0625 C 24.757812 -43.90625 22.347656 -42.078125 19.484375 -40.578125 L 19.015625 -40.328125 C 18.535156 -40.097656 18.265625 -40.265625 18.203125 -40.828125 L 18.125 -41.515625 C 18.320312 -43.296875 18.148438 -45.421875 17.609375 -47.890625 L 17.484375 -48.75 L 17.4375 -49.59375 L 17.21875 -51.671875 C 17.132812 -52.472656 16.984375 -53.171875 16.765625 -53.765625 L 16.671875 -54.4375 C 16.472656 -56.738281 15.664062 -59.898438 14.25 -63.921875 L 13.0625 -67.28125 C 12.550781 -68.507812 12.039062 -69.585938 11.53125 -70.515625 C 10.644531 -71.992188 10.769531 -73.382812 11.90625 -74.6875 C 13.632812 -76.644531 15.164062 -77.835938 16.5 -78.265625 C 17.15625 -78.492188 18.109375 -78.660156 19.359375 -78.765625 C 21.648438 -79.140625 23.945312 -78.421875 26.25 -76.609375 C 28.851562 -74.617188 30.863281 -72.007812 32.28125 -68.78125 C 32.507812 -68.269531 32.738281 -67.601562 32.96875 -66.78125 L 33.46875 -64.6875 C 33.894531 -63.332031 33.96875 -61.4375 33.6875 -59 Z M 39.46875 -59.25 C 39.4375 -60.070312 39.296875 -60.910156 39.046875 -61.765625 C 38.765625 -62.804688 38.523438 -63.851562 38.328125 -64.90625 C 37.785156 -67.769531 36.722656 -70.4375 35.140625 -72.90625 C 33.347656 -75.625 31.191406 -77.648438 28.671875 -78.984375 C 28.046875 -79.328125 27.304688 -79.625 26.453125 -79.875 L 24.203125 -80.5625 C 21.847656 -81.238281 19.550781 -81.4375 17.3125 -81.15625 C 14.363281 -80.726562 11.835938 -79.566406 9.734375 -77.671875 L 8.640625 -76.609375 C 8.066406 -75.953125 7.457031 -75.863281 6.8125 -76.34375 C 5.894531 -77 4.769531 -77.039062 3.4375 -76.46875 L 2.890625 -76.3125 L 2.34375 -76.09375 C 1.75 -75.863281 1.238281 -75.507812 0.8125 -75.03125 C 0.269531 -74.4375 0.0976562 -73.828125 0.296875 -73.203125 L 0.515625 -72.265625 L 0.6875 -71.375 C 1.59375 -67.519531 1.988281 -63.875 1.875 -60.4375 L 1.90625 -59.421875 L 2.046875 -58.40625 L 2.125 -57.890625 L 2.21875 -57.375 L 2.375 -50.953125 L 2.46875 -47.71875 L 3.53125 -34.53125 C 3.582031 -33.539062 3.597656 -32.691406 3.578125 -31.984375 C 3.460938 -30.535156 3.414062 -28.804688 3.4375 -26.796875 L 3.578125 -21.65625 L 3.65625 -14 L 3.703125 -8.34375 C 3.753906 -6.207031 3.867188 -4.304688 4.046875 -2.640625 L 4.421875 2.421875 L 4.46875 3.015625 L 4.546875 3.609375 C 4.804688 4.742188 5.488281 5.253906 6.59375 5.140625 C 7.1875 5.054688 7.953125 4.847656 8.890625 4.515625 L 10.96875 3.578125 C 11.820312 3.203125 12.546875 2.945312 13.140625 2.8125 C 13.515625 2.695312 13.882812 2.5 14.25 2.21875 L 15.1875 1.3125 L 15.609375 0.8125 L 16.03125 0.25 C 17.988281 -1.988281 19.007812 -4.492188 19.09375 -7.265625 C 19.15625 -9.421875 19.398438 -11.453125 19.828125 -13.359375 C 20.128906 -14.773438 20.171875 -16.445312 19.953125 -18.375 C 19.804688 -19.539062 19.804688 -20.5625 19.953125 -21.4375 C 20.148438 -22.96875 20.175781 -24.441406 20.03125 -25.859375 L 19.90625 -26.84375 L 19.90625 -27.859375 C 20.019531 -29.421875 19.9375 -31.578125 19.65625 -34.328125 L 19.515625 -35.640625 C 19.492188 -36.347656 19.851562 -36.757812 20.59375 -36.875 L 21.4375 -37 C 22.601562 -37.0625 23.78125 -37.414062 24.96875 -38.0625 C 26.070312 -38.664062 26.9375 -39.09375 27.5625 -39.34375 C 29.375 -40.019531 31.132812 -41.210938 32.84375 -42.921875 L 36.578125 -46.875 C 37.941406 -48.320312 38.722656 -49.664062 38.921875 -50.90625 L 39.046875 -51.34375 L 39.265625 -51.71875 C 39.515625 -52.195312 39.625 -52.789062 39.59375 -53.5 Z M 39.46875 -59.25 "/></g></g></g><g fill="#439594" fill-opacity="1"><g transform="translate(98.967798, 102.351633)"><g><path d="M 33.6875 -59 C 33.488281 -57.289062 32.953125 -55.148438 32.078125 -52.578125 C 31.703125 -51.554688 31.132812 -50.660156 30.375 -49.890625 C 29.09375 -48.617188 27.875 -47.34375 26.71875 -46.0625 C 24.757812 -43.90625 22.347656 -42.078125 19.484375 -40.578125 L 19.015625 -40.328125 C 18.535156 -40.097656 18.265625 -40.265625 18.203125 -40.828125 L 18.125 -41.515625 C 18.320312 -43.296875 18.148438 -45.421875 17.609375 -47.890625 L 17.484375 -48.75 L 17.4375 -49.59375 L 17.21875 -51.671875 C 17.132812 -52.472656 16.984375 -53.171875 16.765625 -53.765625 L 16.671875 -54.4375 C 16.472656 -56.738281 15.664062 -59.898438 14.25 -63.921875 L 13.0625 -67.28125 C 12.550781 -68.507812 12.039062 -69.585938 11.53125 -70.515625 C 10.644531 -71.992188 10.769531 -73.382812 11.90625 -74.6875 C 13.632812 -76.644531 15.164062 -77.835938 16.5 -78.265625 C 17.15625 -78.492188 18.109375 -78.660156 19.359375 -78.765625 C 21.648438 -79.140625 23.945312 -78.421875 26.25 -76.609375 C 28.851562 -74.617188 30.863281 -72.007812 32.28125 -68.78125 C 32.507812 -68.269531 32.738281 -67.601562 32.96875 -66.78125 L 33.46875 -64.6875 C 33.894531 -63.332031 33.96875 -61.4375 33.6875 -59 Z M 39.46875 -59.25 C 39.4375 -60.070312 39.296875 -60.910156 39.046875 -61.765625 C 38.765625 -62.804688 38.523438 -63.851562 38.328125 -64.90625 C 37.785156 -67.769531 36.722656 -70.4375 35.140625 -72.90625 C 33.347656 -75.625 31.191406 -77.648438 28.671875 -78.984375 C 28.046875 -79.328125 27.304688 -79.625 26.453125 -79.875 L 24.203125 -80.5625 C 21.847656 -81.238281 19.550781 -81.4375 17.3125 -81.15625 C 14.363281 -80.726562 11.835938 -79.566406 9.734375 -77.671875 L 8.640625 -76.609375 C 8.066406 -75.953125 7.457031 -75.863281 6.8125 -76.34375 C 5.894531 -77 4.769531 -77.039062 3.4375 -76.46875 L 2.890625 -76.3125 L 2.34375 -76.09375 C 1.75 -75.863281 1.238281 -75.507812 0.8125 -75.03125 C 0.269531 -74.4375 0.0976562 -73.828125 0.296875 -73.203125 L 0.515625 -72.265625 L 0.6875 -71.375 C 1.59375 -67.519531 1.988281 -63.875 1.875 -60.4375 L 1.90625 -59.421875 L 2.046875 -58.40625 L 2.125 -57.890625 L 2.21875 -57.375 L 2.375 -50.953125 L 2.46875 -47.71875 L 3.53125 -34.53125 C 3.582031 -33.539062 3.597656 -32.691406 3.578125 -31.984375 C 3.460938 -30.535156 3.414062 -28.804688 3.4375 -26.796875 L 3.578125 -21.65625 L 3.65625 -14 L 3.703125 -8.34375 C 3.753906 -6.207031 3.867188 -4.304688 4.046875 -2.640625 L 4.421875 2.421875 L 4.46875 3.015625 L 4.546875 3.609375 C 4.804688 4.742188 5.488281 5.253906 6.59375 5.140625 C 7.1875 5.054688 7.953125 4.847656 8.890625 4.515625 L 10.96875 3.578125 C 11.820312 3.203125 12.546875 2.945312 13.140625 2.8125 C 13.515625 2.695312 13.882812 2.5 14.25 2.21875 L 15.1875 1.3125 L 15.609375 0.8125 L 16.03125 0.25 C 17.988281 -1.988281 19.007812 -4.492188 19.09375 -7.265625 C 19.15625 -9.421875 19.398438 -11.453125 19.828125 -13.359375 C 20.128906 -14.773438 20.171875 -16.445312 19.953125 -18.375 C 19.804688 -19.539062 19.804688 -20.5625 19.953125 -21.4375 C 20.148438 -22.96875 20.175781 -24.441406 20.03125 -25.859375 L 19.90625 -26.84375 L 19.90625 -27.859375 C 20.019531 -29.421875 19.9375 -31.578125 19.65625 -34.328125 L 19.515625 -35.640625 C 19.492188 -36.347656 19.851562 -36.757812 20.59375 -36.875 L 21.4375 -37 C 22.601562 -37.0625 23.78125 -37.414062 24.96875 -38.0625 C 26.070312 -38.664062 26.9375 -39.09375 27.5625 -39.34375 C 29.375 -40.019531 31.132812 -41.210938 32.84375 -42.921875 L 36.578125 -46.875 C 37.941406 -48.320312 38.722656 -49.664062 38.921875 -50.90625 L 39.046875 -51.34375 L 39.265625 -51.71875 C 39.515625 -52.195312 39.625 -52.789062 39.59375 -53.5 Z M 39.46875 -59.25 "/></g></g></g><g fill="#439594" fill-opacity="1"><g transform="translate(161.689902, 102.351633)"><g><path d="M 18.421875 -34.0625 C 17.929688 -29.675781 17.660156 -24.21875 17.609375 -17.6875 L 17.609375 -9.734375 L 17.4375 -1.875 C 17.351562 0.113281 17.535156 1.347656 17.984375 1.828125 C 18.410156 2.335938 19.578125 2.578125 21.484375 2.546875 L 26.25 2.640625 L 31 2.8125 C 34.882812 2.925781 38.050781 2.867188 40.5 2.640625 L 41 2.546875 L 41.515625 2.46875 C 41.878906 2.46875 42.09375 2.609375 42.15625 2.890625 C 42.207031 3.148438 42.132812 3.476562 41.9375 3.875 C 41.789062 4.207031 41.578125 4.53125 41.296875 4.84375 C 40.960938 5.21875 40.453125 5.40625 39.765625 5.40625 L 35.90625 5.578125 L 32.03125 5.875 C 28.882812 6.070312 26.300781 6.070312 24.28125 5.875 C 21.875 5.613281 19.367188 6.050781 16.765625 7.1875 C 14.179688 8.289062 11.554688 8.757812 8.890625 8.59375 L 7.828125 8.546875 C 7.429688 8.578125 7.101562 8.632812 6.84375 8.71875 C 5.425781 9.28125 4.40625 9.195312 3.78125 8.46875 C 3.351562 7.976562 3.015625 7.039062 2.765625 5.65625 C 1.460938 -1.882812 0.664062 -10.800781 0.375 -21.09375 L 0.171875 -34.53125 L 0.046875 -47.984375 C 0.015625 -50.191406 0.0390625 -52.796875 0.125 -55.796875 L 0.421875 -63.671875 C 0.648438 -70.109375 0.582031 -75.328125 0.21875 -79.328125 C 0.15625 -80.203125 0.421875 -80.738281 1.015625 -80.9375 C 3.910156 -81.988281 7.34375 -81.222656 11.3125 -78.640625 C 13.4375 -77.222656 14.84375 -75.238281 15.53125 -72.6875 C 15.75 -71.84375 15.945312 -70.679688 16.125 -69.203125 L 16.296875 -67.453125 L 16.546875 -65.671875 C 18.015625 -57.078125 18.679688 -47.675781 18.546875 -37.46875 L 18.5 -35.46875 L 18.453125 -34.671875 Z M 18.421875 -34.0625 "/></g></g></g><g fill="#439594" fill-opacity="1"><g transform="translate(226.453605, 102.351633)"><g><path d="M 22.546875 0.25 C 22.234375 0.332031 21.835938 0.363281 21.359375 0.34375 L 20.125 0.21875 C 19.070312 0.15625 18.257812 0.421875 17.6875 1.015625 L 17.484375 1.109375 L 17.21875 1.0625 C 15.382812 0.1875 13.160156 -0.238281 10.546875 -0.21875 L 7.109375 -0.046875 L 3.703125 0.171875 L 3.109375 0 L 2.546875 -0.21875 L 1.75 -0.25 L 0.890625 -0.375 C 0.296875 -0.488281 0.015625 -0.734375 0.046875 -1.109375 C 0.0976562 -1.585938 0.453125 -1.898438 1.109375 -2.046875 L 2.046875 -2.171875 L 2.890625 -2.296875 L 5.578125 -2.71875 L 8.25 -3.015625 C 9.019531 -3.097656 9.359375 -3.425781 9.265625 -4 C 8.929688 -6.351562 8.804688 -9.316406 8.890625 -12.890625 L 9.0625 -17.359375 L 9.140625 -21.78125 L 8.9375 -38.28125 L 8.640625 -54.78125 C 8.609375 -55.75 8.492188 -56.957031 8.296875 -58.40625 L 7.78125 -62.0625 C 7.695312 -62.769531 7.300781 -62.976562 6.59375 -62.6875 C 5.539062 -62.269531 4.363281 -62.101562 3.0625 -62.1875 C 3.113281 -62.695312 3.351562 -63.222656 3.78125 -63.765625 L 4.34375 -64.390625 L 4.890625 -65.03125 L 6.546875 -67.125 L 8.203125 -69.15625 C 9.535156 -70.769531 10.769531 -72.0625 11.90625 -73.03125 C 14.007812 -74.8125 16.09375 -74.96875 18.15625 -73.5 C 20.3125 -71.96875 21.390625 -70.148438 21.390625 -68.046875 L 21.359375 -56.703125 L 21.21875 -45.34375 L 21.21875 -21.8125 L 21.015625 -13.3125 C 20.898438 -9.851562 20.859375 -7.019531 20.890625 -4.8125 C 20.890625 -3.789062 21.367188 -3.222656 22.328125 -3.109375 L 24.546875 -2.890625 L 26.75 -2.59375 C 27.320312 -2.507812 27.773438 -2.335938 28.109375 -2.078125 C 28.566406 -1.765625 28.796875 -1.382812 28.796875 -0.9375 C 28.796875 -0.457031 28.566406 -0.128906 28.109375 0.046875 L 27.484375 0.171875 L 26.84375 0.21875 L 24.75 0.25 Z M 22.546875 0.25 "/></g></g></g></svg>